<svg width="136" height="136" viewBox="0 0 136 136" fill="none" xmlns="http://www.w3.org/2000/svg">
<path d="M136 68C136 105.555 105.555 136 68 136C30.4446 136 0 105.555 0 68C0 30.4446 30.4446 0 68 0C105.555 0 136 30.4446 136 68ZM27.7879 68C27.7879 90.2086 45.7914 108.212 68 108.212C90.2086 108.212 108.212 90.2086 108.212 68C108.212 45.7914 90.2086 27.7879 68 27.7879C45.7914 27.7879 27.7879 45.7914 27.7879 68Z" fill="#C9C9C9"/>
<path d="M12.3624 28.9044C3.60153 41.3723 -0.717796 56.4214 0.0973684 71.6377C0.912533 86.854 6.81494 101.355 16.8577 112.816C26.9005 124.276 40.5017 132.032 55.4792 134.837C70.4568 137.643 85.9427 135.337 99.4528 128.289C112.963 121.24 123.714 109.859 129.982 95.9692C136.249 82.0797 137.67 66.4876 134.016 51.694C130.362 36.9005 121.845 23.763 109.831 14.389C97.8177 5.01505 83.0036 -0.0521178 67.7656 0.000403921L67.8614 27.7881C76.8725 27.757 85.6329 30.7535 92.7372 36.2969C99.8415 41.8402 104.878 49.6092 107.039 58.3574C109.2 67.1056 108.36 76.3261 104.653 84.5397C100.947 92.7533 94.589 99.484 86.5998 103.652C78.6105 107.82 69.4528 109.184 60.5958 107.525C51.7387 105.865 43.6956 101.279 37.7568 94.5021C31.8179 87.7249 28.3275 79.1494 27.8454 70.1512C27.3634 61.1529 29.9176 52.2535 35.0985 44.8806L12.3624 28.9044Z" fill="#3A42FF"/>
</svg>
