<svg width="162" height="162" viewBox="0 0 162 162" fill="none" xmlns="http://www.w3.org/2000/svg">
<path d="M158 81C160.209 81 162.01 79.208 161.901 77.0016C161.443 67.7305 159.394 58.5968 155.834 50.0026C151.764 40.1753 145.797 31.2459 138.276 23.7243C130.754 16.2028 121.825 10.2364 111.997 6.16576C102.17 2.09513 91.6371 -4.64961e-07 81 0C70.3629 4.64961e-07 59.83 2.09513 50.0026 6.16576C40.1753 10.2364 31.2459 16.2028 23.7243 23.7244C16.2028 31.2459 10.2364 40.1753 6.16576 50.0026C2.60595 58.5968 0.55694 67.7305 0.0987425 77.0016C-0.0103048 79.208 1.79086 81 4 81L40.5986 81C42.8077 81 44.5759 79.2038 44.8181 77.008C45.1944 73.5981 46.0515 70.2516 47.3695 67.0698C49.1988 62.6534 51.8801 58.6405 55.2603 55.2603C58.6405 51.8801 62.6534 49.1988 67.0698 47.3695C71.4862 45.5401 76.2197 44.5986 81 44.5986C85.7803 44.5986 90.5138 45.5401 94.9302 47.3695C99.3466 49.1988 103.36 51.8801 106.74 55.2603C110.12 58.6405 112.801 62.6534 114.631 67.0698C115.948 70.2516 116.806 73.5981 117.182 77.008C117.424 79.2038 119.192 81 121.401 81H158Z" fill="#C9C9C9"/>
<path d="M111.452 5.94211C127.934 12.6293 132.5 18.5 136.5 22.5L105.5 54.5C103.9 51.7 97.6234 48.5126 94.685 47.269C87.2777 44.2637 79.0871 43.7803 71.3777 45.8934C63.6682 48.0065 56.8687 52.5985 52.0289 58.9606C47.9996 64.2571 45.5151 70.5352 44.8078 77.102C44.5713 79.2984 42.8078 81.0993 40.5987 81.105L4.00026 81.2002C1.79113 81.2059 -0.0146886 79.4183 0.0885987 77.2116C0.854852 60.8407 6.57315 45.0515 16.5338 31.9581C27.3034 17.8013 42.4336 7.58319 59.5885 2.88122C76.7434 -1.82075 94.969 -0.745097 111.452 5.94211Z" fill="#3A42FF"/>
</svg>
