<svg width="49" height="36" viewBox="0 0 49 36" fill="none" xmlns="http://www.w3.org/2000/svg">
<path d="M39.5713 20.2644C39.9022 20.1611 41.4642 20.3698 41.8133 20.4546C46.1698 21.5136 48.5313 26.1479 46.1913 30.158C46.1202 30.2796 45.3008 31.2885 45.1812 31.4202C44.1381 32.5668 42.4774 33.4387 40.9136 33.5575C40.7958 33.5725 40.6777 33.5857 40.5596 33.5971C38.9368 33.7507 36.9652 33.1539 35.7024 32.0839C34.6989 31.2336 33.8856 29.8748 33.4527 28.6195C33.3755 28.2154 33.3366 27.7849 33.3019 27.3746C33.1683 25.7974 33.5879 24.6951 34.3809 23.3784C35.4609 21.585 37.5158 20.4383 39.5713 20.2644ZM42.6173 31.9487C45.2129 30.6749 46.4029 27.6271 45.3567 24.9317C44.3104 22.2362 41.3763 20.789 38.601 21.5997C35.8254 22.4104 34.1317 25.2096 34.701 28.0443C35.2703 30.879 37.9134 32.8071 40.7867 32.4834C41.423 32.4117 42.0425 32.2308 42.6173 31.9487Z" fill="#FEFEFE"/>
<path d="M43.6449 23.7541C43.6969 23.7474 43.7113 23.7594 43.7648 23.776C43.8087 24.056 42.3378 27.2916 42.0706 27.7332C41.9454 27.9404 41.777 28.2316 41.5823 28.3764C41.0222 28.7931 37.6226 30.2357 36.8945 30.4173C36.8833 30.4545 36.8924 30.4363 36.8467 30.4639L36.8052 30.413C36.7258 30.0807 36.8474 30.075 36.9631 29.7968C37.231 29.1367 37.6079 28.4678 37.9478 27.8555C38.421 26.9837 38.6538 25.8725 39.6448 25.4172C40.9371 24.8234 42.2984 24.2563 43.6301 23.7663C43.635 23.7622 43.64 23.7581 43.6449 23.7541ZM40.5332 27.6764C40.7881 27.6084 40.8633 27.506 41.0247 27.2915L41.0215 26.8495C40.9284 26.7062 40.8718 26.6132 40.7526 26.4872C40.6285 26.4703 40.3493 26.415 40.2411 26.4415C39.2943 26.7145 39.5893 27.934 40.5332 27.6764Z" fill="#FEFEFE"/>
<path d="M44.3514 26.2281C44.5079 26.2104 44.7578 26.2458 44.922 26.2628C45.0282 26.4789 45.127 26.5628 45.1498 26.8175C45.1741 27.0857 44.9308 27.419 44.6812 27.5063C44.3574 27.4352 44.0498 27.4744 43.9011 27.0124C43.8213 26.7646 43.932 26.5969 44.0522 26.3832C44.1236 26.3383 44.2706 26.269 44.3514 26.2281Z" fill="#FEFEFE"/>
<path d="M35.4767 26.2248C35.8723 26.2031 35.8768 26.2357 36.1707 26.4959C36.2305 27.021 36.3307 27.1879 35.809 27.4277C35.2665 27.6365 34.6098 26.7697 35.4767 26.2248Z" fill="#FEFEFE"/>
<path d="M40.1327 30.8091C40.1707 30.8099 40.4273 30.9157 40.4881 30.9381C40.6998 31.4637 40.7985 31.6346 40.2441 31.9448C39.8205 31.932 39.4956 31.502 39.6989 31.1041C39.8099 30.8868 39.9196 30.8761 40.1327 30.8091Z" fill="#FEFEFE"/>
<path d="M39.9659 22.1388C40.3136 22.1257 40.689 22.2588 40.4623 22.7094C40.4387 22.7563 40.3667 22.8478 40.334 22.8997C39.615 23.0246 39.5043 22.4586 39.9659 22.1388Z" fill="#FEFEFE"/>
<path d="M40.7864 32.4833C39.9331 32.711 38.2217 32.4097 37.4553 31.9934C34.5941 30.4395 33.7317 27.1275 35.1521 24.3399C35.7882 23.0798 36.8988 22.1239 38.2393 21.6821C39.7415 21.1979 41.5099 21.3418 42.9281 22.0483C44.9453 23.0531 46.6132 25.9394 45.7831 28.1747C45.6506 28.5318 45.5834 28.8872 45.388 29.2351C44.8409 30.2073 43.7184 31.6001 42.6169 31.9486C45.2125 30.6748 46.4026 27.627 45.3563 24.9316C44.3101 22.2361 41.3759 20.789 38.6007 21.5996C35.8251 22.4103 34.1313 25.2095 34.7006 28.0442C35.27 30.8789 37.913 32.807 40.7864 32.4833Z" fill="#020504"/>
<path d="M6.48353 13.3583C6.61188 12.8964 7.3548 12.2635 7.77137 12.0424C9.29972 11.2311 11.3467 11.7914 12.1782 13.33C13.0406 14.9258 12.3802 16.8311 10.7989 17.6565C10.3472 17.8924 10.0327 17.9602 9.5417 18.0478C10.5921 18.1531 11.3276 18.5093 12.0087 19.3309C12.7715 20.251 12.586 21.1286 12.6742 22.2073C12.7758 23.4506 12.7472 24.6956 12.8111 25.9303L13.082 30.942C13.1032 31.3099 13.1278 31.7139 13.1595 32.0825C13.2339 32.9493 13.3481 33.7019 12.3133 34.0164C12.2294 34.0419 12.1615 34.0642 12.0712 34.0745C11.3537 34.0942 10.9006 34.3396 10.158 34.0802C10.0461 33.9071 9.99915 33.7756 9.92265 33.5859C9.96642 33.4922 10.1059 33.1749 10.1715 33.1284C10.6362 32.8212 11.3885 33.0858 11.8486 32.747C12.0313 32.6126 11.8027 32.1215 11.7986 31.9402C11.7701 30.6772 11.7717 29.4145 11.6658 28.1548C11.6011 27.386 11.6176 26.5958 11.5319 25.8251C11.4513 24.1255 11.5048 22.397 11.2699 20.7084C11.2356 20.451 11.0428 20.2082 10.8619 20.0288C10.2417 19.4139 9.64189 19.3073 8.78812 19.3092L8.7768 19.3386C8.90808 19.4031 8.99425 19.4301 9.06702 19.5517C9.55882 20.3739 9.69301 20.8908 9.64115 21.8351C9.62358 22.1555 9.65743 22.3437 9.58308 22.6906L9.57889 22.7094C9.54905 22.7433 9.37551 22.9518 9.37221 22.9909C9.36891 23.0301 9.56075 23.18 9.60234 23.2149C9.71853 23.3018 9.78312 23.4146 9.86717 23.5269C10.3773 24.2082 10.3117 25.0569 9.76575 25.7225C9.33167 26.2455 8.70902 26.5763 8.03272 26.6434C7.04466 26.7386 6.58548 26.4317 5.83071 25.8879C4.23532 24.7384 4.4896 23.2274 4.96675 21.5347C5.0417 21.2688 5.12889 20.9532 5.24603 20.6851C6.2355 18.4203 6.40499 18.251 8.74871 18.0601C8.71641 17.9628 8.26837 17.8662 8.1564 17.8306C6.58358 17.3299 5.72296 15.5093 6.18565 13.9524C6.23564 13.7842 6.32655 13.4488 6.48353 13.3583ZM9.64049 16.7723C10.1917 16.6427 10.7301 16.3969 11.0005 15.884C11.8206 14.3282 10.7301 12.736 9.03752 12.8786C8.03392 13.233 7.45191 13.6032 7.3405 14.8201C7.23316 15.9919 8.47172 17.1005 9.64049 16.7723ZM7.99827 23.5893C8.27375 22.2195 8.50557 21.4988 7.99465 20.1705C7.85325 19.8837 7.79848 19.771 7.53892 19.5665C6.71074 19.8657 6.25508 21.6949 6.04945 22.5015C6.05835 23.1941 5.67736 23.555 6.18702 24.3999C6.45874 24.8626 6.92646 25.2158 7.44558 25.3518C7.87856 25.4665 8.59944 25.3669 8.71475 24.8451C8.83527 24.2997 8.25628 24.0108 7.99827 23.5893Z" fill="#FEFEFE"/>
<path d="M6.48324 13.3583C6.6116 12.8964 7.35452 12.2635 7.77108 12.0424C9.29943 11.2311 11.3464 11.7914 12.1779 13.33C13.0403 14.9258 12.3799 16.8311 10.7986 17.6565C10.3469 17.8924 10.0324 17.9602 9.54141 18.0478C10.5918 18.1531 11.3273 18.5093 12.0084 19.3309C12.7712 20.251 12.5857 21.1286 12.6739 22.2073C12.7755 23.4506 12.7469 24.6956 12.8108 25.9303L13.0817 30.942C13.1029 31.3099 13.1275 31.7139 13.1592 32.0825C13.2336 32.9493 13.3478 33.7019 12.313 34.0164C12.2291 34.0419 12.1612 34.0642 12.0709 34.0745C12.1482 33.993 12.2622 33.9684 12.364 33.9203C12.8302 33.7001 13.144 33.4342 13.1534 32.8752C13.1783 32.4523 13.0491 31.9973 13.0445 31.5827C13.0349 30.7212 12.9216 29.8594 12.8866 29.0037L12.661 23.2239C12.6461 22.8795 12.6357 22.5275 12.6187 22.1874C12.5636 21.0793 12.652 20.1064 11.8435 19.2379C10.9494 18.2777 9.99458 18.1059 8.74843 18.0601C8.71612 17.9628 8.26809 17.8662 8.15611 17.8306C6.58329 17.3299 5.72267 15.5093 6.18536 13.9524C6.23535 13.7842 6.32627 13.4488 6.48324 13.3583ZM9.6402 16.7723C10.1914 16.6427 10.7298 16.3969 11.0002 15.884C11.8203 14.3282 10.7298 12.736 9.03724 12.8786C8.03363 13.233 7.45162 13.6032 7.34021 14.8201C7.23288 15.9919 8.47143 17.1005 9.6402 16.7723Z" fill="#FEFEFE"/>
<path d="M6.48324 13.3583C6.6116 12.8964 7.35452 12.2635 7.77108 12.0424C9.29943 11.2311 11.3464 11.7914 12.1779 13.33C13.0403 14.9258 12.3799 16.8311 10.7986 17.6565C10.3469 17.8924 10.0324 17.9602 9.54141 18.0478C10.5918 18.1531 11.3273 18.5093 12.0084 19.3309C12.7712 20.251 12.5857 21.1286 12.6739 22.2073C12.7755 23.4506 12.7469 24.6956 12.8108 25.9303L13.0817 30.942C13.1029 31.3099 13.1275 31.7139 13.1592 32.0825C13.2336 32.9493 13.3478 33.7019 12.313 34.0164C12.2291 34.0419 12.1612 34.0642 12.0709 34.0745C12.1482 33.993 12.2622 33.9684 12.364 33.9203C12.8302 33.7001 13.144 33.4342 13.1534 32.8752C13.1783 32.4523 13.0491 31.9973 13.0445 31.5827C13.0349 30.7212 12.9216 29.8594 12.8866 29.0037L12.661 23.2239C12.6461 22.8795 12.6357 22.5275 12.6187 22.1874C12.5636 21.0793 12.652 20.1064 11.8435 19.2379C10.9494 18.2777 9.99458 18.1059 8.74843 18.0601C8.71612 17.9628 8.26809 17.8662 8.15611 17.8306C6.58329 17.3299 5.72267 15.5093 6.18536 13.9524C6.23535 13.7842 6.32627 13.4488 6.48324 13.3583C6.49614 13.6232 6.04931 14.2748 6.12015 14.9839C6.43476 18.1338 10.3467 19.0309 12.057 16.363C13.35 14 11.4779 11.4713 8.86887 11.7722C7.73744 11.9027 7.16288 12.5104 6.48324 13.3583Z" fill="#020504"/>
<path d="M7.99436 20.1705C8.82064 21.1227 8.20122 22.6052 8.07512 23.6486C8.29899 23.7873 8.53869 24.0605 8.69471 24.276C9.0456 24.7607 8.64486 25.2508 8.16719 25.4186C8.04172 25.4627 7.91192 25.489 7.78852 25.5393C7.67539 25.4961 7.53923 25.4433 7.42163 25.4169C6.74417 25.2644 6.28675 24.7944 5.99967 24.1844C5.7374 23.627 5.84266 23.1545 6.00318 22.5869C6.01035 22.5606 6.03282 22.5248 6.04917 22.5015C6.05806 23.1941 5.67707 23.555 6.18673 24.3999C6.45845 24.8626 6.92617 25.2158 7.44529 25.3518C7.87828 25.4665 8.59915 25.3669 8.71447 24.8451C8.83498 24.2997 8.25599 24.0108 7.99798 23.5893C8.27347 22.2195 8.50529 21.4988 7.99436 20.1705Z" fill="#2D3C3A"/>
<path d="M37.3206 3.14479C37.9358 3.07284 38.5697 3.3017 39.1167 3.54591C41.2606 4.50293 41.8705 7.07791 40.639 9.014C39.7492 10.4125 39.0426 11.965 38.0606 13.3066C37.8919 13.5372 37.6901 13.6184 37.4338 13.705C37.059 13.7353 36.8551 13.5998 36.5489 13.4088C36.4164 13.1028 36.0694 12.6518 35.8943 12.333C35.2176 11.1019 34.5018 9.88285 33.8518 8.63773C32.4949 6.03806 34.5014 3.2489 37.3206 3.14479ZM37.5667 8.9432C38.6966 8.80496 39.4978 7.77316 39.3523 6.64412C39.2067 5.51504 38.1696 4.72044 37.0415 4.87355C35.9238 5.02521 35.1382 6.05058 35.2826 7.16918C35.4267 8.28778 36.447 9.08017 37.5667 8.9432Z" fill="#FEFEFE"/>
<path d="M37.0416 4.87362C38.1698 4.72052 39.2069 5.51512 39.3524 6.6442C39.498 7.77324 38.6967 8.80504 37.5668 8.94328C36.4471 9.08024 35.4269 8.28786 35.2827 7.16926C35.1384 6.05066 35.924 5.02529 37.0416 4.87362ZM37.6051 8.85053C38.6683 8.6917 39.4055 7.70648 39.2578 6.64163C39.1102 5.57678 38.1328 4.82929 37.0662 4.96577C36.3666 5.05531 35.7686 5.51389 35.501 6.16664C35.2332 6.81938 35.3365 7.56568 35.7717 8.1209C36.2073 8.67616 36.9073 8.95477 37.6051 8.85053Z" fill="#1D151D"/>
<path d="M37.2911 5.87548C37.361 5.85442 37.6641 5.9364 37.7358 5.97444C38.2976 6.2726 38.2262 6.86031 38.0083 7.33555C37.8458 7.41869 37.6989 7.49126 37.5456 7.5917C36.6691 7.6412 36.4157 7.16979 36.5732 6.34333L36.8949 5.98235C37.0035 5.94389 37.1743 5.90532 37.2911 5.87548Z" fill="#FEFEFE"/>
<path d="M16.5196 7.18958C16.8636 6.98975 17.6063 6.68161 18.0063 6.65461C18.3794 6.6294 19.091 6.92106 19.452 7.08369C20.3194 7.39145 27.2583 9.54681 27.6329 9.51496C28.1607 9.47006 28.7553 9.15179 29.2622 8.98765C30.3724 8.62811 31.4977 8.30969 32.6057 7.94224C33.2146 8.35353 33.4375 8.70264 32.6346 9.12307C31.9505 9.48128 29.1063 10.2692 28.2378 10.6798C28.1491 12.5473 28.256 15.0334 28.2093 16.955C28.195 17.5395 28.2354 17.8845 28.1664 18.439C28.1536 18.5421 28.0697 18.6018 27.9942 18.633C27.8798 18.7091 27.7734 18.733 27.6405 18.7537C26.8748 18.8734 26.9073 17.8772 26.9141 17.3752C26.9182 17.0707 26.9142 16.766 26.9135 16.4643C26.9217 15.0493 26.9193 13.6342 26.9063 12.2192C26.8993 11.8206 26.9243 11.1337 26.8777 10.7677C26.7339 10.6422 25.6631 10.3749 25.4148 10.3019C24.2477 9.95895 23.0776 9.55229 21.9153 9.20695C21.2915 9.02263 20.6692 8.83338 20.0484 8.63918C19.8096 8.56539 19.3131 8.42736 19.1124 8.32604L19.0834 8.31107L19.0104 8.31001C18.9438 8.4602 19.0064 15.6765 18.9837 16.3393C18.9729 16.655 19.0033 17.726 18.9598 18.1157C18.95 18.2036 18.8205 18.3174 18.739 18.338C18.5334 18.39 18.2139 18.4675 18.0156 18.3722C17.9049 18.319 17.809 18.1853 17.7907 18.0781C17.6458 17.2309 17.7276 16.0298 17.727 15.1598C17.7385 13.28 17.725 11.4001 17.6865 9.52065C17.679 9.26348 17.6989 8.37266 17.6486 8.21984C17.3781 8.21305 11.0411 10.6554 10.5791 10.8837C10.2715 10.8162 10.0557 10.7818 9.86686 10.4894C9.76726 10.3367 9.73249 10.1507 9.77025 9.97227C9.80351 9.82036 9.8972 9.68856 10.0298 9.60724C10.1228 9.55113 10.1666 9.51467 10.2657 9.51545C10.5081 9.41009 10.8616 9.31636 11.1355 9.21212C12.9381 8.52594 14.7261 7.91359 16.5196 7.18958Z" fill="#FEFEFE"/>
<path d="M10.5854 10.7722C12.9642 9.94527 15.3647 8.85852 17.7585 8.04504C17.8823 11.4044 17.7678 14.7484 17.8338 18.0947C17.9059 18.1687 18.0164 18.2628 18.0956 18.3344C18.4718 18.3033 18.5196 18.3071 18.8828 18.2132C18.8377 14.8785 18.9164 11.4971 18.8767 8.14531C19.0187 8.21313 19.1618 8.27866 19.3059 8.3419L19.0834 8.31104L19.0104 8.30998C18.9438 8.46017 19.0064 15.6765 18.9837 16.3392C18.9729 16.655 19.0033 17.7259 18.9598 18.1157C18.95 18.2036 18.8205 18.3173 18.739 18.338C18.5334 18.39 18.2139 18.4675 18.0156 18.3722C17.9049 18.319 17.809 18.1852 17.7907 18.0781C17.6458 17.2309 17.7276 16.0298 17.727 15.1598C17.7385 13.28 17.725 11.4001 17.6865 9.52062C17.679 9.26345 17.6989 8.37263 17.6486 8.21981C17.3781 8.21302 11.0411 10.6553 10.5791 10.8836C10.2715 10.8161 10.0557 10.7817 9.86686 10.4894C9.76726 10.3367 9.73249 10.1506 9.77025 9.97224C9.80351 9.82033 9.8972 9.68853 10.0298 9.60721C10.1228 9.5511 10.1666 9.51464 10.2657 9.51542C10.0328 9.66648 9.94867 9.80321 9.78294 10.0232C9.83926 10.1995 9.9326 10.4108 10.004 10.5851C10.2358 10.7091 10.3331 10.7217 10.5854 10.7722Z" fill="#2D3C3A"/>
<path d="M19.0835 8.31104L19.306 8.3419C19.7713 8.42237 20.2411 8.62252 20.6923 8.75682C22.565 9.31425 24.4229 9.92154 26.2974 10.4758C26.523 10.5425 26.7436 10.6085 26.9734 10.6602C26.9583 12.3094 26.954 13.9587 26.9607 15.608C26.9618 16.3884 26.9371 17.1949 26.9854 17.9716C27.0345 18.7622 27.4602 18.63 27.9943 18.6329C27.8798 18.709 27.7735 18.7329 27.6406 18.7537C26.8749 18.8733 26.9074 17.8772 26.9142 17.3752C26.9183 17.0706 26.9143 16.7659 26.9136 16.4643C26.9218 15.0493 26.9193 13.6342 26.9064 12.2192C26.8994 11.8205 26.9244 11.1337 26.8777 10.7677C26.734 10.6422 25.6631 10.3748 25.4149 10.3019C24.2477 9.95891 23.0777 9.55226 21.9154 9.20692C21.2916 9.0226 20.6693 8.83335 20.0485 8.63915C19.8097 8.56536 19.3131 8.42733 19.1124 8.32601L19.0835 8.31104Z" fill="#020504"/>
<path d="M16.5195 7.18958C16.8635 6.98975 17.6062 6.68161 18.0063 6.65461C18.3793 6.6294 19.091 6.92106 19.4519 7.08369C18.7891 6.95709 18.2279 6.61966 17.5835 6.82642C17.2173 6.94387 16.8951 7.10689 16.5195 7.18958Z" fill="#1D151D"/>
<path d="M18.8882 26.7265C19.7847 26.8584 20.2277 27.1613 21.0652 27.3832C22.6593 27.8057 24.2364 28.2757 25.8255 28.7155C25.9326 28.7452 26.9572 29.0387 27.0079 29.0373C27.034 28.8267 27.0006 28.6423 26.9933 28.4335C26.9221 26.3816 26.9522 24.32 26.9575 22.2664C26.959 21.6642 27.0524 21.194 27.7692 21.32C27.823 21.3297 27.8765 21.3409 27.9297 21.3536C28.0794 21.5192 28.1106 21.5575 28.2127 21.7587C28.2012 22.4711 28.1826 28.977 28.2483 29.1078C29.3333 28.8789 30.9415 28.1773 32.0443 28.0407C32.1687 28.1434 32.2665 28.2241 32.3811 28.3399C32.3937 28.5309 32.4147 28.7559 32.4095 28.9445C31.6551 29.4036 30.6045 29.6386 29.7707 29.913C29.2877 30.072 28.7507 30.272 28.2604 30.3817C27.436 30.5558 26.5515 30.1239 25.7608 29.9167C23.8765 29.4227 21.9613 28.8075 20.0917 28.2942C18.6212 27.8905 18.3872 27.5067 16.885 28.0963C16.2228 28.3562 14.5356 28.9377 13.8535 28.9094C13.6931 28.4764 13.6719 28.3416 13.7517 27.8757C14.0086 27.7863 14.2624 27.688 14.5125 27.5811C14.6508 27.4974 15.3091 27.318 15.5028 27.2472C16.177 27.0008 16.9006 26.69 17.6136 26.5871C17.6285 25.7575 17.5448 24.8219 17.58 23.9738C17.5879 23.7845 17.563 23.303 17.6055 23.1397C17.6327 22.1687 17.6397 21.7661 18.7081 21.9534C19.0647 23.0305 18.7507 25.541 18.8882 26.7265Z" fill="#FEFEFE"/>
<path d="M17.6138 26.5871C17.6287 25.7575 17.5451 24.8218 17.5803 23.9737C17.5881 23.7844 17.5632 23.303 17.6057 23.1396C17.63 23.8452 17.5923 24.5705 17.6089 25.2768C17.6195 25.7295 17.6919 26.1751 17.6995 26.6354C16.9002 26.7114 16.2066 27.1254 15.4482 27.3414C15.2021 27.4114 14.7554 27.5666 14.5127 27.581C14.651 27.4973 15.3094 27.3179 15.503 27.2471C16.1772 27.0007 16.9008 26.6899 17.6138 26.5871Z" fill="#020504"/>
<path d="M6.3869 26.8969C6.79049 26.9435 6.93129 26.9333 7.20474 27.2712C7.21507 27.284 7.22509 27.2971 7.2348 27.3104C7.32958 27.9961 7.10556 28.8682 7.02273 29.5675C6.89891 30.613 6.68267 31.6713 6.54767 32.7133C6.49729 33.1022 7.98668 32.9546 8.14376 32.7064C8.15455 32.69 8.33227 32.5337 8.36025 32.5052C8.60329 31.7026 8.68211 30.8352 8.82027 30.0064C8.93573 29.3137 8.90092 29.0754 9.27913 28.4676C9.63527 28.488 9.95357 28.4699 10.215 28.7705C10.3897 29.0212 10.1053 30.2358 10.0487 30.5711C9.85155 31.6968 9.90716 33.2045 8.73854 33.8202C7.66595 34.4316 4.75604 34.5281 5.21402 32.5867C5.25926 32.395 5.25255 32.1441 5.29836 31.9518C5.61107 30.638 5.77019 29.2858 5.96123 27.949C6.00886 27.6154 6.06831 27.0723 6.3869 26.8969Z" fill="#FEFEFE"/>
<path d="M10.215 28.7705C10.3897 29.0212 10.1053 30.2358 10.0487 30.5711C9.85155 31.6968 9.90716 33.2045 8.73854 33.8202C7.66595 34.4316 4.75604 34.5281 5.21402 32.5867C5.25926 32.395 5.25255 32.1441 5.29836 31.9518C5.61107 30.638 5.77019 29.2858 5.96123 27.949C6.00886 27.6154 6.06831 27.0723 6.3869 26.8969C6.32938 26.9892 6.18109 27.2243 6.16193 27.3196C6.05379 27.8573 5.98415 28.4086 5.90343 28.9495L5.47628 31.7572C5.42668 32.088 5.3925 32.4254 5.29129 32.7432C5.26823 32.8157 5.18719 33.0504 5.20741 33.1104C5.47136 33.8769 6.06353 34.1309 6.82909 34.107C7.35777 34.0906 7.73201 34.1308 8.24684 33.958C9.74685 33.4543 9.78566 31.9482 9.97502 30.6208C10.0359 30.1939 10.1191 29.7475 10.18 29.3182C10.2041 29.1506 10.1811 28.9368 10.215 28.7705Z" fill="#020504"/>
<path d="M41.8257 8.38331C42.1917 8.05889 42.4346 7.93014 42.9391 8.05751C43.4426 8.08803 43.5182 8.06138 43.9769 8.27422C44.2958 8.82547 44.1879 9.76892 44.1861 10.4224L44.1847 13.2612V17.1682C44.1833 17.8322 44.1896 18.5009 44.1601 19.1649C44.1478 19.442 44.0729 19.5751 44.0205 19.826C43.6897 20.1357 43.1926 19.9834 42.9683 19.5982C42.9131 18.3624 43.0492 9.68658 42.9012 9.32363C42.7683 9.28253 42.5109 9.33133 42.3622 9.34989C41.8029 9.08285 41.7807 8.96574 41.8257 8.38331Z" fill="#FEFEFE"/>
<path d="M41.8257 8.38331C42.1917 8.05889 42.4346 7.93014 42.9391 8.05751C42.7264 8.09162 42.6037 8.07769 42.391 8.06472C41.9112 8.30582 41.9558 8.41502 41.96 8.91941C42.2494 9.40393 42.5141 9.19784 43 9.20814L42.9989 15.8172C42.9992 16.9203 42.9553 18.3991 43.007 19.4795C43.2464 19.8969 43.5537 20.0095 44.0205 19.826C43.6897 20.1357 43.1926 19.9834 42.9683 19.5982C42.9131 18.3624 43.0492 9.68658 42.9012 9.32363C42.7683 9.28253 42.5109 9.33133 42.3622 9.34989C41.8029 9.08285 41.7807 8.96574 41.8257 8.38331Z" fill="#020504"/>
<path d="M4.84092 16.5393C5.20714 16.4608 5.79133 16.6968 6.11477 16.8729C6.8039 17.9389 6.01461 17.8522 5.86154 18.1331C5.58686 18.2062 5.28005 17.6755 4.72761 17.7812C3.77825 17.9629 3.26693 18.6157 3.42543 19.5825C3.45104 19.7387 3.46105 19.8692 3.59129 19.9661L3.64413 19.9509C3.6617 19.8635 3.68065 19.7764 3.70094 19.6896C3.83608 19.1181 4.05415 19.0451 4.52103 18.7345C4.8008 18.564 5.19332 18.3506 5.52857 18.42C5.74408 18.4646 5.84213 18.7296 5.78423 18.928C5.63608 19.1719 5.46603 19.266 5.3273 19.4514C4.71238 20.2733 5.13936 20.9192 4.0744 21.4619C3.6295 21.4656 3.22774 21.3936 2.88543 21.0805C2.43303 20.6564 2.23466 20.0751 2.20428 19.471C2.12399 17.8744 3.23506 16.6165 4.84092 16.5393Z" fill="#FEFEFE"/>
<path d="M3.06819 21.7352C5.30529 21.5322 2.57314 24.9624 5.34706 26.1618C5.38042 26.2883 5.43618 26.4194 5.48469 26.542C5.39972 26.7772 5.30547 26.9294 5.18129 27.1454C5.06559 27.2259 4.91375 27.3556 4.77179 27.3235C4.43967 27.3866 4.11455 27.3704 3.81182 27.1963C2.22652 26.2854 1.99946 24.2193 2.42319 22.6016C2.5143 22.2537 2.69975 21.8473 3.06819 21.7352Z" fill="#FEFEFE"/>
<path d="M25.7842 17.8973C26.3056 18.0096 27.3176 18.7645 26.8643 19.3599C26.7278 19.5393 26.5011 19.5326 26.2971 19.5488C26.004 19.5408 25.6098 19.2916 25.3591 19.1465C25.0554 18.4322 24.9673 18.2076 25.7842 17.8973Z" fill="#FEFEFE"/>
<path d="M35.3829 15.2217C36.273 15.2108 36.1609 16.02 35.5991 16.4217C35.4191 16.5505 35.0253 16.7999 34.8003 16.7736C33.2728 16.9999 34.3991 15.4268 35.3829 15.2217Z" fill="#FEFEFE"/>
<path d="M33.8464 17.3147C34.3339 17.5258 34.2883 17.6729 34.2217 18.154C33.9741 18.4271 33.2732 19.0134 32.9182 19.0367C32.8072 18.9078 32.5659 18.778 32.4828 18.6462C32.173 18.1554 33.0659 17.5675 33.3871 17.3623C33.5601 17.3679 33.6779 17.3431 33.8464 17.3147Z" fill="#FEFEFE"/>
<path d="M28.3143 19.3398C28.789 19.3131 29.3501 19.9702 29.4478 20.4268C29.2919 20.7026 29.3431 20.9764 29.0041 21.0314C28.4663 21.0792 28.1834 20.7329 27.8416 20.374C27.7669 20.0678 27.7812 19.9639 27.8012 19.6541C27.9593 19.5412 28.1453 19.4384 28.3143 19.3398Z" fill="#FEFEFE"/>
<path d="M18.7888 18.729C18.9934 18.7645 19.2904 18.9825 19.3664 19.1897C19.5628 19.725 18.8618 20.349 18.3999 20.4835C18.3313 20.4791 18.1982 20.4658 18.1367 20.441C17.0541 20.0067 18.2618 18.9861 18.7888 18.729Z" fill="#FEFEFE"/>
<path d="M21.1111 17.0876C21.6928 17.132 21.6813 17.475 21.7259 17.9138C21.3224 18.3171 21.3249 18.5138 20.7191 18.747C19.4974 18.7713 20.0984 17.3955 21.1111 17.0876Z" fill="#FEFEFE"/>
<path d="M36.8513 14.6122C36.9634 14.5955 37.0587 14.5711 37.1579 14.6322C37.8761 15.0746 38.434 15.8261 37.3864 16.2684L37.3354 16.2995C36.6523 16.1441 36.4945 15.8112 36.3232 15.1666C36.4642 14.9241 36.5595 14.6603 36.8513 14.6122Z" fill="#FEFEFE"/>
<path d="M16.5357 20.5656C17.3627 20.6115 17.3397 20.9463 17.1882 21.6426C16.8765 21.886 16.7733 21.9892 16.3914 22.0914C16.1871 22.121 16.0171 22.0946 15.8626 21.9363L15.8495 21.9227C15.7197 21.7898 15.7001 21.6774 15.6514 21.501C15.8453 21.0879 16.1009 20.7439 16.5357 20.5656Z" fill="#FEFEFE"/>
<path d="M31.5907 19.0678C31.6573 19.0667 31.8995 19.1591 31.962 19.1923C32.2561 19.3485 32.1962 19.7764 32.0463 20.0116C31.8501 20.3194 31.5664 20.5138 31.2174 20.6031C30.5187 20.6181 30.5607 20.3091 30.5782 19.7433C30.9627 19.3224 31.0551 19.2734 31.5907 19.0678Z" fill="#FEFEFE"/>
<path d="M23.1597 16.9412C23.6687 16.9225 24.0924 17.3805 24.3873 17.744C24.3665 18.3935 24.3127 18.1052 23.9822 18.4559L23.9599 18.4799C23.2447 18.4511 22.015 17.5633 23.1597 16.9412Z" fill="#FEFEFE"/>
<path d="M14.0536 21.5255C14.401 21.4179 14.9537 21.7562 15.0328 22.1378C15.0606 22.2668 15.0336 22.4016 14.9582 22.51C14.8339 22.6907 14.6955 22.6903 14.4885 22.7269C13.9512 22.8348 13.7636 22.6225 13.498 22.2117C13.6199 21.7633 13.6115 21.6925 14.0536 21.5255Z" fill="#FEFEFE"/>
</svg>
