<svg width="37" height="28" viewBox="0 0 37 28" fill="none" xmlns="http://www.w3.org/2000/svg">
<path d="M15.5273 18.4884C15.2258 18.2633 14.802 17.6437 14.6179 17.3073C14.0963 16.3019 14.1182 15.1729 14.3799 14.1082C15.2363 10.6247 20.1623 10.0349 21.8326 13.1872C22.577 14.5921 22.6716 16.2701 21.8031 17.6738C21.7206 17.8071 21.1309 18.498 21.1265 18.5129C21.2374 18.5924 21.6321 18.6933 21.7909 18.751C24.1481 19.6076 25.6467 21.0948 25.7326 23.7252C25.8045 24.2004 25.8045 24.6717 25.8251 25.1492C25.8419 25.4942 25.9444 26.451 25.7339 26.6763C25.5536 26.8692 24.7625 26.9556 24.4876 26.9604C24.4662 26.9608 24.4448 26.9607 24.4235 26.96C23.5998 27.0165 22.7793 27.1016 21.9388 27.1558C21.4633 27.2011 20.8141 27.241 20.3394 27.2417C19.3027 27.2787 17.9096 27.2653 16.8785 27.2331C16.4788 27.2542 15.6151 27.2104 15.2208 27.1554C14.4285 27.1236 11.819 27.0136 11.2058 26.721C11.0919 26.6667 11.0383 26.6033 10.9976 26.4848C10.7819 25.8554 10.9476 23.3613 11.0927 22.642C11.1726 22.2422 11.3047 21.8547 11.4854 21.4892C11.7911 20.8652 11.9307 20.7687 12.3819 20.2971C13.2843 19.3538 14.3049 18.9099 15.5273 18.4884ZM17.2202 25.6407C18.4282 25.6513 19.6364 25.645 20.8443 25.6217C21.6869 25.6067 22.4702 25.6024 23.3111 25.4959C23.6007 25.4592 23.9663 25.4934 24.2669 25.4695C24.2282 24.3924 24.2328 22.9365 23.6875 21.9762C23.0467 20.8476 21.6457 20.2739 20.4762 19.8884C20.141 19.7779 19.7503 19.5598 19.3883 19.6151C18.9365 19.6833 18.7162 19.7494 18.2488 19.7385C18.0321 19.7334 17.1349 19.6293 17.0193 19.647C15.833 19.8284 13.8978 20.697 13.1761 21.6655C12.6448 22.3785 12.4997 23.6337 12.5293 24.4922C12.5381 24.7448 12.5296 25.2296 12.4842 25.4638C12.8862 25.4701 13.4428 25.4519 13.8306 25.498C14.9698 25.6334 16.081 25.5986 17.2202 25.6407ZM18.7394 18.0992C19.3121 17.9254 19.6631 17.7856 20.0613 17.3362C21.6481 15.5456 20.5723 12.4867 17.9823 12.7249C17.7534 12.7471 17.6872 12.7624 17.4699 12.8493C15.5517 13.6168 15.3324 16.3538 16.8669 17.6091C17.4989 18.126 17.9589 18.14 18.7394 18.0992Z" fill="#FDFEFD"/>
<path d="M25.825 25.1492C25.8417 25.4941 25.9443 26.4509 25.7338 26.6762C25.5534 26.8692 24.7624 26.9556 24.4874 26.9603C24.4661 26.9607 24.4447 26.9606 24.4233 26.96C24.6312 26.8265 25.4174 26.741 25.6993 26.7016C25.7477 26.335 25.6799 25.6154 25.7031 25.1938C25.7615 25.2669 25.739 25.3902 25.739 25.5032C25.7396 25.4052 25.7356 25.2695 25.7542 25.177L25.825 25.1492Z" fill="#8AD6EA"/>
<path d="M25.7326 23.7252C25.8045 24.2004 25.8045 24.6716 25.8251 25.1492L25.7543 25.177C25.7357 25.2696 25.7397 25.4052 25.7391 25.5033C25.7391 25.3903 25.7616 25.2669 25.7032 25.1938C25.6598 24.85 25.7254 24.1052 25.7326 23.7252Z" fill="#B5ECF4"/>
<path d="M15.2207 27.1554C15.5101 27.134 16.6989 27.0974 16.8784 27.2331C16.4787 27.2542 15.6149 27.2104 15.2207 27.1554Z" fill="#B5ECF4"/>
<path d="M20.3394 27.2417C20.6006 27.1009 21.6105 27.1341 21.9387 27.1558C21.4632 27.2011 20.8141 27.241 20.3394 27.2417Z" fill="#B5ECF4"/>
<path d="M28 6.99939C32.0269 7.16733 33.3615 12.0445 30.5506 14.6089C31.6315 14.7205 33.2519 15.8644 33.9177 16.7271C34.7438 17.7969 34.9568 18.4999 35.0886 19.8104C35.1569 20.2003 35.3185 22.353 35.1279 22.6218C34.8942 22.9515 34.0769 23.0198 33.696 23.0748C33.5721 23.0929 33.4471 23.1044 33.3219 23.1095C33.2894 23.1237 33.1513 23.1396 33.1075 23.1478C32.6462 23.2548 32.1592 23.2208 31.6996 23.2716C30.5963 23.3935 29.5001 23.4152 28.3902 23.412C27.9264 23.4106 27.4411 23.4339 26.9779 23.4154C26.9273 23.1955 26.7203 21.9816 26.8093 21.8299C26.8991 21.7582 27.0439 21.7774 27.1584 21.7771C28.936 21.7731 30.7138 21.8347 32.4792 21.5819C32.8045 21.5353 33.2658 21.4857 33.5912 21.493C33.5084 20.1039 33.6311 18.6945 32.6429 17.5439C32.051 16.8547 31.2533 16.4515 30.4278 16.1119C29.9687 15.923 29.5643 15.6711 29.0527 15.6362C28.7363 15.6105 28.4099 15.6366 28.0916 15.6389C27.7531 15.6413 27.4159 15.6351 27.0775 15.6327C26.0065 16.0328 24.8613 16.4469 23.892 17.0706C23.7916 17.1607 23.6573 17.2947 23.5393 17.3489L23.4986 17.3305C23.4809 16.8768 23.5015 16.3608 23.486 15.8763C23.4667 15.8408 23.4078 15.5862 23.4374 15.5632C23.8863 15.2143 24.9877 14.6801 25.527 14.5734C24.7655 13.8025 24.259 13.0061 24.1089 11.9126C23.8537 10.0538 24.6091 8.3251 26.3007 7.41367C26.8147 7.12616 27.4189 7.02837 28 6.99939ZM28.3595 13.9972C31.7283 13.0533 30.6154 8.25715 27.8222 8.62298C26.1331 8.81321 25.4755 10.3846 25.7382 11.9314C25.9489 13.1723 27.074 14.1241 28.3595 13.9972Z" fill="#FDFEFD"/>
<path d="M35.0885 19.8104C35.1568 20.2003 35.3184 22.353 35.1278 22.6218C34.894 22.9515 34.0767 23.0198 33.6958 23.0748C33.572 23.0929 33.447 23.1045 33.3218 23.1096C33.6999 22.9657 34.7316 22.8611 35.0023 22.6163C35.1095 22.3021 35.0373 21.1069 35.0573 20.6983C35.0647 20.544 35.0896 19.9575 35.0885 19.8104Z" fill="#8AD6EA"/>
<path d="M23.4858 15.8762C23.6793 16.0951 23.6298 16.8064 23.7057 17.0884C23.7152 17.1237 23.8683 17.0784 23.8918 17.0706C23.7914 17.1607 23.6571 17.2947 23.5391 17.3488L23.4984 17.3304C23.4808 16.8768 23.5013 16.3608 23.4858 15.8762Z" fill="#B5ECF4"/>
<path d="M27.0776 15.6327C27.3936 15.5164 28.7485 15.499 29.0529 15.6362C28.7365 15.6105 28.41 15.6366 28.0917 15.6389C27.7532 15.6413 27.4161 15.6351 27.0776 15.6327Z" fill="#B5ECF4"/>
<path d="M5.99947 14.5962C5.92361 14.5418 5.86674 14.4818 5.79849 14.4178C3.29025 12.0664 4.59906 7.10131 8.29902 7.01665C10.6417 6.96306 12.4642 9.01723 12.4642 11.3271C12.4642 12.715 11.9012 13.6522 10.9507 14.6054C11.6025 14.6788 12.5684 15.1332 13.1018 15.5506C13.1353 15.5866 13.1901 15.6621 13.1813 15.7126C13.1129 16.1082 13.0559 16.4259 13.09 16.8329C13.1077 17.0443 13.2525 17.2736 13.246 17.4091C13.2344 17.4174 13.2228 17.4257 13.2112 17.434C12.8425 17.1409 12.4081 16.8929 11.9902 16.6974C11.1292 16.2946 10.1996 15.7312 9.24774 15.6106C8.64262 15.6352 7.74118 15.6025 7.18999 15.7063C5.93647 16.1453 4.12254 16.8222 3.49281 18.0931C2.94492 19.1988 3.12542 20.3923 3.02575 21.491C3.32599 21.492 3.79031 21.5545 4.10148 21.5904C4.6159 21.6498 5.43217 21.661 5.90059 21.7404C6.41867 21.8283 9.8035 21.732 9.9484 21.8322C10.033 22.016 9.93076 22.2983 9.88025 22.4949C9.8458 22.7059 9.81337 22.9263 9.76719 23.1342C9.75062 23.1696 9.72232 23.3222 9.7125 23.3701C9.22401 23.4165 8.73606 23.3873 8.24893 23.3985C7.12225 23.4244 6.05459 23.3676 4.93544 23.2625C3.84084 23.1598 2.59607 23.1651 1.55345 22.7794C1.52793 22.6727 1.50805 22.5648 1.49387 22.4561C1.41 21.8098 1.47556 21.256 1.52479 20.6153C1.55035 20.2826 1.52095 19.9256 1.54625 19.6064C1.63866 18.4805 2.05716 17.406 2.75059 16.5143C2.8887 16.3359 3.32743 15.8825 3.51187 15.767C4.22852 15.3181 5.15728 14.7036 5.99947 14.5962ZM8.4901 13.977C9.31976 13.9057 9.69161 13.7158 10.259 13.0697C10.7291 12.5345 10.8522 11.6089 10.7896 10.9202C10.7254 10.2315 10.3889 9.59681 9.85472 9.15723C9.44453 8.81874 8.96656 8.58512 8.42464 8.59578C7.90117 8.69301 7.5851 8.72298 7.13363 9.0271C5.70079 9.99223 5.76062 12.6051 7.16447 13.5785C7.51759 13.8234 8.05976 13.9953 8.4901 13.977Z" fill="#FDFEFD"/>
<path d="M7.18994 15.7063C7.42863 15.5101 9.00078 15.4707 9.2477 15.6106C8.64258 15.6352 7.74114 15.6025 7.18994 15.7063Z" fill="#8AD6EA"/>
<path d="M9.7673 23.1341C9.74162 22.9088 9.71078 22.6694 9.88036 22.4949C9.84591 22.7059 9.81348 22.9262 9.7673 23.1341Z" fill="#8AD6EA"/>
<path d="M20.6807 2.14376C21.4609 2.13041 22.1518 2.35009 22.5782 3.0591C23.2974 4.25507 22.8163 5.74172 21.9981 6.75469C20.9696 8.02809 19.6634 9.17276 18.1913 9.88941C18.0272 9.96928 16.6783 9.05099 16.4909 8.89325C16.4475 8.85869 15.9152 8.37448 15.8042 8.27744C14.9909 7.65015 13.7066 6.08879 13.5523 5.07057C13.4868 4.41719 13.4784 3.61902 13.8909 3.07075C14.8251 1.8288 16.6704 2.04561 17.5975 3.18234C17.7086 3.31862 18.0064 3.69589 18.1246 3.78246C18.236 3.70305 18.4613 3.38712 18.5626 3.27219C19.2258 2.5202 19.7125 2.23698 20.6807 2.14376Z" fill="#FDFEFD"/>
<path d="M26.3009 7.41368L26.143 7.40356L26.1284 7.3812C26.6294 7.03292 26.9223 6.85308 27.5376 6.88031C27.6819 6.88668 27.7596 6.77233 27.9895 6.83678C28.056 6.89327 28.0393 6.86388 28.0549 6.94602L28.0002 6.99939C27.4192 7.02838 26.8149 7.12616 26.3009 7.41368ZM26.8539 7.12044L26.8809 7.0937L26.8374 7.09337L26.7784 7.11965L26.8539 7.12044Z" fill="#94A9AF" fill-opacity="0.0156863"/>
</svg>
