<svg width="40" height="41" viewBox="0 0 40 41" fill="none" xmlns="http://www.w3.org/2000/svg">
<path d="M13.2882 10.5974L13.3051 10.6164C13.2923 10.7463 13.0698 10.8639 12.9601 10.9346C8.60397 13.7466 4.55448 17.7964 2.93503 22.8285C2.57269 23.8934 2.54994 24.8807 2.55242 25.9897C2.55969 29.238 5.24581 31.6473 8.24022 32.357C8.42553 32.4009 8.57159 32.5012 8.75428 32.5457C8.99788 32.605 9.27628 32.6138 9.52354 32.6732C10.2503 32.8477 10.9869 32.9346 11.7333 32.9598C12.4962 33.0012 15.2952 32.8656 15.8145 33.0138C15.8946 33.0876 15.9341 33.1144 15.9483 33.2377C16.0105 33.7787 14.9178 33.7409 14.4919 33.7914C13.9025 33.9127 13.0321 33.9035 12.4447 33.9116C8.15206 33.9704 2.59136 32.8766 1.34244 28.053C0.651105 25.3829 1.71258 22.2009 3.05923 19.8863C5.00206 16.5469 7.9928 13.7374 11.2482 11.7015C11.7008 11.4227 12.8078 10.7249 13.2882 10.5974Z" fill="#FEFEFE"/>
<path d="M22.8197 17.7245C22.6682 17.1087 22.6465 16.6111 22.5441 15.9938C22.3514 14.8332 22.1303 13.6319 21.9905 12.4648C21.8821 11.5596 21.8978 10.5552 21.7372 9.6557C21.6762 9.31371 21.3883 8.57461 21.2572 8.20968L20.3554 5.69648C20.2317 5.34824 20.1093 4.99203 19.9777 4.64664C19.874 4.37441 19.7915 4.07207 19.454 4.07714C19.1623 4.21382 19.0364 4.70535 18.9254 5.01203C18.5292 6.09215 18.1415 7.17527 17.7621 8.2614C17.6541 8.57625 17.3567 9.39367 17.2983 9.68539C17.1576 10.4496 17.2277 11.2661 17.1271 12.0352C16.9822 13.1417 16.7972 14.2431 16.624 15.345C16.5244 15.9786 16.4462 16.6406 16.3105 17.2696C16.2361 17.6146 16.2196 18.5356 16.0283 18.758L15.9896 18.7465C15.9228 18.3012 15.9031 17.8495 15.8576 17.4016C15.7327 16.1741 15.6326 14.9526 15.5278 13.7235C15.4629 12.9639 15.2636 11.9839 15.344 11.2476C15.3777 10.939 18.1565 3.82081 18.354 3.55028C18.5767 3.24535 18.8679 3.07258 19.2396 3.01968C19.6465 2.96177 20.0573 3.04497 20.3878 3.29538C20.5934 3.45109 20.6839 3.5871 20.7967 3.81304C21.1111 4.44246 21.3371 5.1191 21.5904 5.77504L22.8354 9.00086C23.028 9.50496 23.614 10.7633 23.674 11.2639C23.7444 11.8516 23.4885 13.4237 23.4943 14.1287C23.4997 14.7871 23.2804 15.6173 23.2642 16.2923C23.2064 16.8077 23.2142 17.5411 23.1318 18.0269C23.0982 18.126 23.1078 18.1536 23.0346 18.2086C22.9351 18.1141 22.9326 17.9361 22.8344 17.7516L22.8197 17.7245Z" fill="#FEFEFE"/>
<path d="M24.4799 29.805C30.278 26.8913 40.4247 18.8171 36.9794 10.9587C36.8442 10.6503 35.9979 9.48893 35.9861 9.39049C36.0883 9.34541 36.4814 9.76108 36.5687 9.8392C37.3841 10.569 37.9846 11.5292 38.3509 12.5557C39.2028 14.8804 38.4103 17.8389 37.272 19.9997C34.9937 24.3248 30.6961 27.9568 26.4195 30.2263C25.938 30.4818 24.982 30.9594 24.4824 31.1471C24.084 31.3243 23.5742 31.4659 23.2231 31.681C23.4227 30.4997 23.3026 30.2909 24.4799 29.805Z" fill="#FEFEFE"/>
<path d="M23.2231 31.6811C23.4227 30.4997 23.3026 30.291 24.4799 29.8051C24.447 29.9642 24.4038 31.0177 24.4824 31.1471C24.084 31.3244 23.5742 31.4659 23.2231 31.6811Z" fill="#4C4C4E"/>
<path d="M25.1537 6.88978C32.6427 6.51971 39.5278 11.0869 34.8266 19.0217C34.7062 19.2249 34.5782 19.4246 34.4517 19.6243C34.3452 19.7755 34.2297 19.9935 34.0377 20.0185C33.8043 19.9262 33.6765 19.5126 33.5369 19.2385C34.1796 17.1935 34.6389 15.8015 34.2916 13.6117C33.6524 9.58146 30.2281 7.65771 26.472 7.18076C26.1357 7.13807 24.7001 7.12123 24.5796 7.03748L24.6177 6.97955C24.7783 6.89514 24.9705 6.90033 25.1537 6.88978Z" fill="#FEFEFE"/>
<path d="M14.5996 16.5894C14.603 16.5907 14.6066 16.5915 14.6097 16.5934C14.8467 16.7379 15.3442 21.906 15.5817 22.6054C15.0527 22.5643 14.4135 22.5955 13.8745 22.5849C12.5527 22.5591 11.2083 22.6097 9.891 22.5985C8.63862 22.589 8.82557 22.5521 8.88507 21.3437C9.19346 20.7932 13.7274 17.277 14.5996 16.5894Z" fill="#FEFEFE"/>
<path d="M24.4447 16.653C24.7506 16.7633 29.8608 20.9302 30.186 21.3289C30.233 21.6653 30.1914 22.1926 30.2136 22.5887C29.9275 22.5782 29.6568 22.5864 29.3706 22.5937C28.6176 22.6305 27.3987 22.5607 26.6003 22.5844C26.0801 22.5998 23.9316 22.621 23.5422 22.551C23.482 22.2447 24.3002 17.1758 24.4447 16.653Z" fill="#FEFEFE"/>
<path d="M14.532 13.056C14.5011 13.6762 14.6146 14.887 14.4572 15.401C14.4054 15.5703 13.3351 16.3664 13.1181 16.5385C11.9767 17.4527 10.8415 18.3747 9.71263 19.3044C9.3745 19.5803 7.97876 20.6401 7.8272 20.9467C7.59122 21.18 7.8413 23.3325 7.68899 23.8206C7.44075 23.8649 6.83149 23.8436 6.53228 23.8513C6.4338 23.1714 6.48181 21.4118 6.48657 20.6655C6.76188 20.3178 7.53024 19.766 7.91513 19.4799C8.79544 18.8257 9.66099 18.1647 10.5414 17.5066C11.1691 17.0374 11.9442 16.5408 12.5379 16.0348C12.784 15.8251 13.2051 15.04 13.4128 14.7194C13.774 14.1617 14.117 13.5817 14.532 13.056Z" fill="#FEFEFE"/>
<path d="M24.5227 13.14C24.9133 13.3351 26.0446 15.6949 26.495 16.0505C28.4654 17.6064 30.6229 19.0512 32.5701 20.6312C32.6264 21.8253 32.691 21.846 31.8306 22.6677C31.5692 22.9046 31.4231 23.0642 31.1903 23.3313C31.1856 22.8818 31.2563 21.1451 31.1149 20.8519C30.9686 20.5484 26.6855 17.1544 26.0737 16.671C25.7037 16.3785 24.8436 15.7983 24.5848 15.4456C24.3495 15.125 24.4436 13.5683 24.5227 13.14Z" fill="#FEFEFE"/>
<path d="M19.4637 7.59753C19.541 7.61488 19.6196 7.68492 19.6633 7.74953C20.1231 8.42871 20.985 9.28015 21.0047 10.1205C21.029 11.1578 21.0139 12.1713 20.9602 13.1918C20.5791 12.714 20.234 12.3105 19.5791 12.2304C19.1898 12.2443 18.7904 12.4274 18.4917 12.6713C18.3606 12.7784 18.2724 13.0536 18.0872 13.0486C17.9924 12.9087 18.0128 10.144 18.0577 9.81347C18.1229 9.33343 19.1171 8.0332 19.4637 7.59753Z" fill="#FEFEFE"/>
<path d="M19.7325 26.2702C19.8067 26.2614 20.0739 26.2774 20.1629 26.2807C20.1355 29.4395 20.1019 32.6189 19.923 35.7788C19.9055 36.0881 19.6496 38.3604 19.5336 38.5241L19.4795 38.5183L19.438 38.4366C19.3214 37.6964 19.2992 37.0304 19.2186 36.2995C18.944 33.81 18.935 31.3268 18.9193 28.8255C18.9151 28.1551 18.8573 26.9049 18.9638 26.2746C19.2355 26.2845 19.461 26.2975 19.7325 26.2702Z" fill="#FEFEFE"/>
<path d="M13.4009 35.1912C12.9625 35.2833 12.4087 35.4123 11.9665 35.4509C7.62125 35.8303 1.94322 34.2838 0.587235 29.589C0.561454 29.4997 0.52027 29.4138 0.564333 29.3344C0.736641 29.417 0.827348 29.7809 0.91988 29.9581C2.50524 32.9936 6.12047 34.219 9.28371 34.7715C10.3941 34.9655 11.5064 34.9681 12.589 35.019C12.7655 35.1248 13.2849 35.0347 13.4016 35.1238L13.4009 35.1912Z" fill="#FEFEFE"/>
<path d="M19.4733 17.561L19.5522 17.6065C20.0155 18.241 20.4601 24.3135 20.0706 24.7826C19.9175 24.8466 19.8558 24.8416 19.6885 24.8467C19.4428 24.8249 19.1765 24.8336 18.9286 24.8354C18.7886 23.5777 18.8645 18.5206 19.4733 17.561Z" fill="#FEFEFE"/>
<path d="M30.1111 22.7873L30.1513 22.7845C30.2051 22.8894 30.162 23.3965 30.1557 23.5547C28.8612 24.0215 27.4326 24.3434 26.115 24.7663C25.5423 24.9502 24.868 25.0467 24.3242 25.2869C24.0251 25.419 23.5913 25.8571 23.3048 26.0742C23.2646 26.0441 23.2115 26.0184 23.2234 25.9818C23.3791 25.5048 24.0213 24.2931 24.2787 23.942C24.5904 23.8512 24.9171 23.8177 25.2373 23.7564L26.8123 23.4475C27.9046 23.2442 29.0141 23.004 30.1111 22.7873Z" fill="#FEFEFE"/>
<path d="M9.01446 22.7819C9.29556 22.8794 9.68239 22.9092 9.99169 22.9727C10.9271 23.1678 11.8639 23.3558 12.802 23.5369C13.3304 23.6395 14.3152 23.7957 14.7833 23.9871C14.9951 24.2322 15.798 25.7454 15.7924 25.9825L15.722 26.0246C15.3306 25.8089 14.9697 25.3745 14.6154 25.2332C14.2438 25.0849 13.6584 24.9529 13.2545 24.8364L10.6175 24.0689C10.1147 23.9224 9.42466 23.7394 8.9477 23.5542C8.94309 23.5046 8.9388 23.4549 8.93481 23.4053C8.91817 23.1972 8.87739 22.9427 9.01446 22.7819Z" fill="#FEFEFE"/>
<path d="M33.7707 3.22949C33.9596 3.3891 34.1071 4.54693 34.5954 4.86393C35.1276 5.20936 35.6052 5.28006 36.1468 5.56561C34.483 5.89936 34.2864 6.43459 33.8375 7.91928C33.5581 7.70135 33.5018 7.00861 33.3659 6.72861C33.0223 6.02096 32.1742 5.78978 31.4893 5.54412C31.8952 5.28869 32.1009 5.29475 32.5246 5.10385C33.4424 4.69041 33.3738 3.96229 33.7707 3.22949Z" fill="#FEFEFE"/>
<path d="M21.8459 27.0116C21.9884 27.001 22.4097 26.996 22.5126 27.0917C22.6696 27.2377 22.3759 31.5381 22.3211 32.018C22.2437 32.695 21.9815 33.4606 22.0486 34.1393C22.0025 34.2373 22.0281 34.2161 21.948 34.2732C21.9007 34.2331 21.8053 34.116 21.7974 34.0537C21.5472 32.0849 21.3548 30.0983 21.3969 28.1082C21.4022 27.8589 21.366 27.2676 21.4455 27.0801C21.5434 27.005 21.7169 27.0159 21.8459 27.0116Z" fill="#FEFEFE"/>
<path d="M16.6266 27.0289C16.9859 27.0274 17.309 27.0231 17.6684 27.0548C17.7254 28.4622 17.6224 29.858 17.555 31.2649C17.5141 32.118 17.4674 33.1051 17.2749 33.9365C17.2246 34.0702 17.2319 34.1202 17.1329 34.1963C16.7865 33.8385 16.3671 27.599 16.6266 27.0289Z" fill="#FEFEFE"/>
<path d="M7.76642 6.23364C8.5088 6.14571 9.18162 6.67688 9.26841 7.41938C9.35521 8.16188 8.82298 8.83391 8.08037 8.91954C7.33935 9.00501 6.66912 8.47419 6.58251 7.73333C6.49591 6.99243 7.02568 6.32137 7.76642 6.23364Z" fill="#FEFEFE"/>
<path d="M34.4577 27.5057C35.1665 27.3894 35.8345 27.8722 35.9465 28.5817C36.0584 29.2912 35.5716 29.9563 34.8615 30.064C34.1574 30.1708 33.4991 29.689 33.3881 28.9855C33.277 28.282 33.7549 27.6209 34.4577 27.5057Z" fill="#FEFEFE"/>
<path d="M17.9018 21.2549L17.9491 21.2816C18.0272 21.4271 18.0478 25.3061 17.9505 25.633C17.7391 25.7735 17.2387 25.7309 16.9631 25.7279C16.8307 25.443 16.7937 22.5652 16.7971 22.0928C17.091 21.752 17.5114 21.4762 17.9018 21.2549Z" fill="#FEFEFE"/>
<path d="M21.129 21.2731C21.3775 21.3616 22.1423 21.891 22.3215 22.1175C22.3012 22.6812 22.2102 25.1193 22.0814 25.6303C21.9429 25.7833 21.3539 25.7387 21.1677 25.6561C20.9926 25.4061 21.0535 21.7565 21.129 21.2731Z" fill="#FEFEFE"/>
<path d="M3.71759 12.2172C3.85119 12.3152 3.88166 12.9017 3.97518 13.0841C4.25064 13.6215 4.89072 13.8054 5.40916 14.0021C5.03818 14.169 4.74826 14.2823 4.4208 14.5003C3.78269 14.9252 3.96146 15.6143 3.69588 15.8119C3.39369 14.5058 3.12671 14.4838 1.97461 14.0058C2.63218 13.7667 3.32097 13.5858 3.4977 12.8086C3.54075 12.6192 3.59863 12.3684 3.71759 12.2172Z" fill="#FEFEFE"/>
<path d="M30.8239 31.3047C31.0055 31.4196 31.1335 32.1366 31.3277 32.3963C31.5313 32.6685 32.4859 32.909 32.5809 33.0911C32.2353 33.2323 32.0477 33.1833 31.6627 33.4286C31.1506 33.7548 31.0872 34.1644 30.9465 34.7183L30.8762 34.745C30.7777 34.668 30.6205 34.0032 30.4755 33.7925C30.1734 33.3534 29.6167 33.1821 29.1201 33.0773C29.4438 32.9529 30.0096 32.6564 30.3357 32.4932C30.5599 32.0559 30.7151 31.7903 30.8239 31.3047Z" fill="#FEFEFE"/>
<path d="M7.68896 23.8206C7.84127 23.3325 7.59119 21.1801 7.82717 20.9468C7.86186 21.2467 7.8524 23.6694 7.77541 23.79L7.68896 23.8206Z" fill="#FEFEFE" fill-opacity="0.972549"/>
<path d="M12.5894 35.019C12.8682 35.0004 14.0436 34.9047 14.1694 35.0094C14.0005 35.1673 13.6406 35.1622 13.4013 35.1913L13.4019 35.1239C13.2852 35.0348 12.7658 35.1248 12.5894 35.019Z" fill="#F7F5FA" fill-opacity="0.964706"/>
<path d="M22.8198 17.7246L22.8345 17.7517C22.9327 17.9362 22.9352 18.1142 23.0347 18.2087C23.1079 18.1537 23.0983 18.1261 23.1319 18.027C23.1331 18.1068 23.1338 18.1866 23.1338 18.2664C23.1337 18.3834 23.1437 18.5861 23.0596 18.6699C22.8983 18.5323 22.8435 17.9518 22.8198 17.7246Z" fill="#F7F5FA" fill-opacity="0.854902"/>
</svg>
