<svg width="57" height="57" viewBox="0 0 57 57" fill="none" xmlns="http://www.w3.org/2000/svg">
<path d="M20.2872 11.2772C23.1127 10.9683 26.0971 11.6285 28.6512 12.8284C31.1713 14.0302 33.3143 15.8992 34.8474 18.2328C35.1113 18.6339 35.4945 19.2216 35.6527 19.6594C38.7587 19.7315 41.8773 19.6191 44.9842 19.6915C46.5651 19.7283 47.3797 20.9557 47.2703 22.4581C48.2963 22.3822 50.6397 22.2714 51.4628 22.8262C51.9224 23.1327 52.2372 23.6131 52.3347 24.1568C52.7839 26.5567 50.2735 26.8616 50.2577 26.9309C49.7688 29.0709 48.7708 29.3841 46.8597 29.7504C48.4484 29.7924 50.8592 30.0094 51.5918 31.6591C51.0236 36.0356 42.3398 38.8639 38.5346 39.6031C38.2307 39.635 38.0282 39.6694 37.7322 39.7281C36.0668 42.2173 33.1642 43.7757 30.1946 43.8871C28.1245 43.9648 25.6142 43.2616 24.0853 41.8167C23.7543 41.8533 23.4229 41.8863 23.0912 41.9158C18.7525 42.2876 14.6918 40.6769 11.4089 37.9104C8.5041 35.4244 6.68945 31.8989 6.3543 28.0902C5.99215 23.7483 7.01475 20.0815 9.84277 16.6956C12.3707 13.6692 16.3457 11.6042 20.2872 11.2772ZM40.5657 37.8883C43.4824 37.0511 49.1881 34.9917 50.2964 31.9138C49.1334 30.6715 45.6684 30.7929 44.0015 30.7884C44.6877 29.9275 44.822 29.7502 45.0526 28.6582C46.3119 28.6634 48.8515 28.682 49.0373 26.9476C49.0915 26.4408 48.5836 26.0143 48.7117 25.6775C49.408 25.5679 49.8558 25.8365 50.7733 25.5767L51.2341 25.0818C51.2691 24.1748 51.2201 23.8956 50.2884 23.6256C49.3012 23.3396 46.431 23.7602 45.6825 23.4943L45.6849 23.4138C46.1628 23.0073 46.0287 21.8042 45.8795 21.2458L45.4364 20.9284C44.1914 20.8407 42.9787 20.882 41.7333 20.8716C39.4502 20.8524 37.1375 20.9043 34.8575 20.8623C34.6681 20.3391 34.3159 19.8434 34.0323 19.3645C31.4309 14.9723 25.6943 11.9669 20.5386 12.5471C16.6038 12.9398 13.1471 14.6833 10.6371 17.7527C8.34529 20.5828 7.25968 24.2013 7.61515 27.8256C8.00524 31.7096 9.71763 34.9501 12.7961 37.3735C15.7687 39.7221 19.501 40.9637 23.296 40.6217C23.6407 40.6219 24.3567 40.3394 24.6214 40.5973C27.9361 43.8277 33.4912 43.066 36.3419 39.6135C36.8206 39.0337 36.9428 38.6161 37.7511 38.4819C38.2649 38.3966 38.826 38.3112 39.3303 38.2061C39.7464 38.1177 40.1586 38.0117 40.5657 37.8883Z" fill="#FEFEFE"/>
<path d="M29.7189 27.9735C33.571 27.7871 36.8468 30.7544 37.041 34.6061C37.2352 38.4578 34.2744 41.7396 30.4232 41.9415C26.5609 42.1441 23.2678 39.173 23.073 35.3104C22.8783 31.4478 25.8559 28.1606 29.7189 27.9735ZM30.8127 40.6044C33.9288 40.1921 36.1223 37.3341 35.7146 34.2175C35.3071 31.1008 32.4524 28.903 29.3351 29.306C26.2112 29.7097 24.0078 32.5718 24.4162 35.6951C24.8247 38.8184 27.69 41.0175 30.8127 40.6044Z" fill="#FEFEFE"/>
<path d="M33.0486 31.2223C33.7896 31.1273 34.3146 31.9755 34.6391 32.5213C33.946 33.7208 32.6561 35.0043 31.7092 36.0576C29.166 38.8863 29.5929 39.4513 27.0043 36.6613C26.5906 36.2355 25.6508 35.3775 25.557 34.827C25.5041 34.2404 26.6101 33.3737 27.0983 33.4617C27.8084 33.5899 28.7589 34.8418 29.2234 35.3587C29.7475 34.6952 32.4786 31.4393 33.0486 31.2223Z" fill="#FEFEFE"/>
<path d="M21.1939 13.4393C24.1875 13.2036 27.3697 14.3815 29.7482 16.1561C32.5051 18.2017 34.341 21.2547 34.8555 24.6488C34.9658 25.426 35.0399 28.25 34.6164 28.8135C34.4599 28.8128 33.225 28.3181 33.0593 28.1631C32.9962 27.8923 33.1544 26.9794 33.1666 26.6221C33.2652 23.7402 32.1504 21.0547 30.216 18.9522C28.2967 16.8661 25.041 15.223 22.1871 15.1154C19.1456 15.0006 16.0399 16.2852 13.8331 18.3598C11.7031 20.3312 10.4605 23.0799 10.3875 25.9813C10.3203 27.6176 10.7897 29.5461 11.4583 31.0131C13.0556 34.5177 16.562 36.9202 20.3042 37.5844C20.9695 37.7025 22.4768 37.6271 22.7823 37.7397C22.898 38.0304 23.0439 39.0445 23.1074 39.4019C23.0084 39.413 22.9091 39.4218 22.8098 39.4284C21.2243 39.533 19.4322 39.2192 17.9213 38.7561C12.8594 37.2045 9.01561 32.5596 8.68218 27.2038C8.44077 23.8342 9.56084 20.5086 11.7916 17.9717C14.1899 15.2596 17.5783 13.6262 21.1939 13.4393Z" fill="#FEFEFE"/>
<path d="M14.717 20.2728C14.8109 20.2681 15.115 20.2559 15.1719 20.2833C15.9095 20.6392 20.1501 24.5631 20.4155 25.008C22.5958 23.8154 23.7543 26.0442 22.5982 27.6918C22.5561 27.726 22.5135 27.7596 22.4703 27.7926C21.7973 28.3057 20.3604 28.1479 19.7789 27.6126C17.9837 25.9361 16.4797 23.8959 14.901 22.0122C14.3995 21.4138 13.8652 20.7798 14.717 20.2728Z" fill="#FEFEFE"/>
<path d="M41.8947 31.8375C43.6892 31.542 46.802 31.3246 48.5477 32.1923C48.6623 32.2493 48.7965 32.4644 48.8008 32.5901C48.8228 33.2436 47.8952 33.9458 47.4028 34.249C44.8994 35.7904 41.8832 36.4189 39.0122 36.8651C38.8597 36.8887 38.6775 36.8647 38.5537 36.775L38.5508 36.6923C38.7924 36.483 39.8345 36.1969 40.1821 36.0573C41.2989 35.6089 45.6354 34.2205 45.8193 33.0609C45.7481 32.5708 44.7943 32.3288 44.3824 32.3467C43.964 32.3416 43.5666 32.279 43.0888 32.2878C42.5163 32.2983 41.5957 32.3855 41.0803 32.2956L41.0341 32.2103C41.1731 31.8961 41.5881 31.8522 41.8947 31.8375Z" fill="#FEFEFE"/>
<path d="M44.382 32.3468C43.9636 32.3416 43.5662 32.279 43.0885 32.2878C42.5159 32.2984 41.5953 32.3855 41.0799 32.2956L41.0337 32.2104C41.1727 31.8961 41.5878 31.8522 41.8944 31.8375C41.9409 31.9465 41.9442 32.0244 42.0729 32.0508C42.9089 32.2223 43.5722 31.9736 44.382 32.3468Z" fill="#B5C0CB"/>
<path d="M23.3627 25.4669L28.2787 25.4724C29.4449 25.4688 30.9856 25.383 32.1481 25.56C32.7422 25.6505 32.5363 26.7553 32.3975 27.1871C31.5263 27.5859 26.3608 27.1701 25.0998 27.3325C24.818 27.3688 23.6072 27.3352 23.2642 27.3121C23.3807 26.7218 23.313 25.5973 23.3627 25.4669Z" fill="#FEFEFE"/>
<path d="M37.9345 25.7299C38.4041 25.6817 39.2231 25.7002 39.7095 25.6999L42.7658 25.6985C44.1396 25.696 45.6644 25.6558 47.035 25.7401C47.6454 25.7776 47.659 26.9669 47.1204 27.2557C46.9824 27.2833 46.8323 27.3118 46.6911 27.3135C44.2508 27.3416 41.809 27.322 39.3684 27.3218C38.9385 27.3218 38.505 27.3275 38.0787 27.2876C37.7378 27.2557 37.5189 26.9395 37.535 26.6167C37.5564 26.1883 37.6399 26.0152 37.9345 25.7299Z" fill="#FEFEFE"/>
<path d="M36.8049 22.4606C37.6612 22.4009 44.2651 22.3343 44.5785 22.5086C44.7423 22.5998 44.8391 22.7345 44.8851 22.9155C44.9453 23.1525 44.9629 23.6518 44.8228 23.8578C44.718 24.0121 44.4703 24.0425 44.2982 24.0647C43.3939 24.1257 36.796 24.2065 36.4495 23.978C36.3207 23.8931 36.2398 23.7252 36.2024 23.5803C36.1376 23.3302 36.127 22.9627 36.2757 22.7383C36.4029 22.5463 36.5947 22.5026 36.8049 22.4606Z" fill="#FEFEFE"/>
<path d="M37.1308 28.701C37.6102 28.629 39.2667 28.64 39.832 28.6504C40.8952 28.6701 42.3095 28.6037 43.344 28.6833C43.4971 28.8788 43.59 29.0761 43.7034 29.2953C43.6733 29.8115 43.6863 30.0386 43.2728 30.3673C42.6294 30.456 37.6026 30.4264 37.0255 30.313C36.5312 29.7748 36.4986 29.142 37.1308 28.701Z" fill="#FEFEFE"/>
<path d="M11.6206 25.6895C12.1166 25.6791 12.6433 25.6437 13.1317 25.6941C13.7593 25.7589 13.6986 26.3826 13.3525 26.7314C13.1678 26.9174 12.9488 26.8822 12.7052 26.8823C12.1727 26.8946 10.7599 27.0637 10.6968 26.3874C10.6432 25.8127 11.2191 25.7014 11.6206 25.6895Z" fill="#FEFEFE"/>
<path d="M22.4024 36.9739C22.2694 37.0941 22.0836 37.2016 21.8949 37.1897C21.0279 37.1309 21.2944 35.633 21.2927 35.0456C21.2908 34.3615 21.7482 34.3471 22.2644 34.4373C22.622 34.7883 22.6069 36.6938 22.4024 36.9739Z" fill="#FEFEFE"/>
<path d="M22.2646 34.4373C22.6223 34.7883 22.6072 36.6938 22.4027 36.9739C22.2481 36.3973 22.5321 35.3996 22.2646 34.4373Z" fill="#6D888E"/>
<path d="M21.5709 15.649C21.7121 15.6397 22.157 15.603 22.233 15.6672C22.7347 16.0914 22.5363 17.8404 22.281 18.2826C20.9943 18.5821 21.2811 17.2747 21.2873 16.4316C21.2899 16.0923 21.3053 15.8762 21.5709 15.649Z" fill="#FEFEFE"/>
<path d="M13.5337 30.7388C13.7485 30.6935 14.0582 30.6861 14.2191 30.8472L14.2056 30.9751C13.9371 31.3972 13.5535 31.5012 13.1088 31.6567C12.8482 31.7259 12.6555 31.746 12.4086 31.6158C12.3038 31.1196 13.1749 30.8582 13.5337 30.7388Z" fill="#FEFEFE"/>
<path d="M17.0747 33.7799C17.2566 33.7632 17.2792 33.7761 17.4427 33.861C17.7513 34.3151 16.9337 34.9805 16.6295 35.2696C16.3619 35.2364 16.276 35.2154 16.1709 34.9547C16.1976 34.5175 16.7565 34.0628 17.0747 33.7799Z" fill="#FEFEFE"/>
<path d="M12.418 21.5151C12.8779 21.5594 13.755 21.8047 13.9563 22.266C13.9765 22.4662 13.9399 22.506 13.8387 22.6788C13.3943 22.6006 12.5184 22.3313 12.3164 21.9028C12.3052 21.7068 12.3236 21.68 12.418 21.5151Z" fill="#FEFEFE"/>
<path d="M31.1685 21.5619C31.3843 21.6202 31.4042 21.6323 31.4974 21.8208C31.4383 22.2531 30.51 22.5714 30.1282 22.682C29.9574 22.6241 29.8762 22.5287 29.8086 22.3745C29.8766 21.9522 30.7878 21.6172 31.1685 21.5619Z" fill="#FEFEFE"/>
<path d="M27.2543 17.4637C27.467 17.4804 27.5149 17.5304 27.6356 17.6651C27.7508 18.1133 27.1681 18.694 26.8289 18.9289C26.5395 18.9017 26.4518 18.877 26.3999 18.5999C26.5139 18.182 26.9477 17.7897 27.2543 17.4637Z" fill="#FEFEFE"/>
<path d="M16.234 17.3856C16.7871 17.5539 17.4959 18.3135 17.184 18.9382C16.5636 18.8599 15.8225 17.9866 16.234 17.3856Z" fill="#FEFEFE"/>
</svg>
