<svg width="30" height="30" viewBox="0 0 30 30" fill="none" xmlns="http://www.w3.org/2000/svg">
<g clip-path="url(#clip0_488_12103)">
<path fill-rule="evenodd" clip-rule="evenodd" d="M0 15C0 11.0218 1.58035 7.20644 4.3934 4.3934C7.20644 1.58035 11.0218 0 15 0C18.9782 0 22.7936 1.58035 25.6066 4.3934C28.4196 7.20644 30 11.0218 30 15C30 18.9782 28.4196 22.7936 25.6066 25.6066C22.7936 28.4196 18.9782 30 15 30C11.0218 30 7.20644 28.4196 4.3934 25.6066C1.58035 22.7936 0 18.9782 0 15ZM13.3498 20.7583C13.7858 21.1216 14.4352 21.0559 14.7898 20.6127L22.156 11.4041C22.5006 10.9732 22.4308 10.3446 22 9.99996C21.5692 9.65534 20.9406 9.72513 20.5959 10.1559L14.284 18.0432C14.049 18.3368 13.6187 18.3803 13.3298 18.1396L9.40798 14.8719C8.98383 14.5185 8.3535 14.5758 8.00006 14.9999C7.64658 15.4241 7.70393 16.0545 8.12815 16.408L13.3498 20.7583Z" fill="#10B981"/>
</g>
<defs>
<clipPath id="clip0_488_12103">
<rect width="30" height="30" fill="white"/>
</clipPath>
</defs>
</svg>
